Coordinates
version=1
nRows=38
nColumns=12
inDegrees=yes

Units are S.I. units (second, meters, Newtons, ...)
Angles are in degrees

endheader
time	SC_y	SC_z	SC_x	AC_y	AC_z	AC_x	GH_y	GH_z	GH_yy	EL_x	PS_y
       0.0              -35.21          6.406         0.9037          64.68         -8.067          16.47          158.7           74.8          142.4          11.61           56.5
  0.001203              -35.21          6.409         0.9098          64.68         -8.067          16.47          158.7           74.8          142.4          11.63          56.51
  0.002406              -35.21          6.412         0.9163          64.68         -8.067          16.46          158.6          74.79          142.3          11.65          56.51
   0.00361              -35.21          6.416         0.9232          64.67         -8.066          16.46          158.6          74.78          142.3          11.67          56.51
  0.004813              -35.21           6.42         0.9305          64.67         -8.066          16.45          158.5          74.77          142.2          11.69          56.51
  0.006016              -35.21          6.424         0.9383          64.66         -8.066          16.45          158.5          74.77          142.2          11.71          56.52
  0.007219               -35.2          6.429         0.9467          64.66         -8.066          16.44          158.4          74.76          142.1          11.74          56.52
  0.008422               -35.2          6.433         0.9556          64.65         -8.066          16.44          158.3          74.75          142.1          11.76          56.52
  0.009626               -35.2          6.438         0.9652          64.65         -8.066          16.43          158.3          74.74          142.0          11.79          56.53
   0.01083               -35.2          6.444         0.9754          64.64         -8.066          16.42          158.2          74.73          142.0          11.82          56.53
   0.01203               -35.2           6.45         0.9864          64.63         -8.066          16.42          158.1          74.72          141.9          11.86          56.54
   0.01324               -35.2          6.456         0.9983          64.63         -8.065          16.41          158.0          74.71          141.8          11.89          56.54
   0.01444               -35.2          6.463          1.011          64.62         -8.065           16.4          158.0          74.69          141.7          11.93          56.54
   0.01564               -35.2           6.47          1.025          64.61         -8.065          16.39          157.9          74.68          141.7          11.97          56.55
   0.01684               -35.2          6.478           1.04           64.6         -8.065          16.38          157.7          74.66          141.6          12.02          56.56
   0.01805               -35.2          6.487          1.056          64.59         -8.064          16.37          157.6          74.65          141.5          12.07          56.56
   0.01925               -35.2          6.496          1.074          64.58         -8.064          16.36          157.5          74.63          141.4          12.12          56.57
   0.02045               -35.2          6.506          1.093          64.57         -8.064          16.35          157.4          74.61          141.3          12.18          56.58
   0.02166              -35.19          6.517          1.114          64.56         -8.064          16.34          157.2          74.59          141.1          12.24          56.58
   0.02286              -35.19          6.529          1.137          64.54         -8.063          16.33          157.1          74.57          141.0          12.31          56.59
   0.02406              -35.19          6.543          1.162          64.53         -8.063          16.31          156.9          74.54          140.8          12.38           56.6
   0.02527              -35.19          6.557          1.189          64.51         -8.062          16.29          156.7          74.51          140.7          12.47          56.61
   0.02647              -35.19          6.574           1.22          64.49         -8.062          16.27          156.5          74.48          140.5          12.56          56.62
   0.02767              -35.18          6.592          1.254          64.47         -8.061          16.25          156.2          74.45          140.3          12.66          56.64
   0.02888              -35.18          6.612          1.292          64.45         -8.061          16.23          156.0          74.41          140.1          12.77          56.65
   0.03008              -35.18          6.634          1.334          64.42          -8.06           16.2          155.7          74.37          139.8           12.9          56.67
   0.03128              -35.18          6.659          1.381          64.39          -8.06          16.17          155.3          74.32          139.5          13.04          56.69
   0.03249              -35.17          6.687          1.434          64.36         -8.059          16.14          154.9          74.27          139.2           13.2          56.71
   0.03369              -35.17          6.719          1.494          64.32         -8.058           16.1          154.5          74.21          138.9          13.38          56.73
   0.03489              -35.16          6.755          1.562          64.28         -8.057          16.06          154.0          74.14          138.4          13.58          56.75
    0.0361              -35.16          6.796          1.639          64.24         -8.056          16.01          153.5          74.06          138.0          13.82          56.78
    0.0373              -35.15          6.844          1.728          64.18         -8.054          15.96          152.8          73.97          137.5          14.08          56.82
    0.0385              -35.15          6.898          1.831          64.12         -8.053           15.9          152.1          73.87          136.8          14.39          56.86
   0.03971              -35.14          6.962           1.95          64.05         -8.051          15.82          151.3          73.75          136.1          14.75           56.9
   0.04091              -35.13          7.036           2.09          63.96         -8.049          15.74          150.3          73.61          135.3          15.17          56.96
   0.04211              -35.12          7.123          2.255          63.86         -8.046          15.63          149.1          73.44          134.3          15.67          57.02
   0.04332               -35.1          7.227          2.451          63.74         -8.043          15.51          147.7          73.25          133.1          16.25          57.09
   0.04452              -35.09          7.352          2.685           63.6          -8.04          15.37          146.0          73.01          131.7          16.96          57.18
